# xmcd
#
# Track frame offsets: 
#        150
#        27025
#        51553
#        76538
#        95620
#        121193
#        143513
#        165590
#        187390
#        208963
#        233375
#        255330
#        277820
#        300198
#
# Disc length: 4303 seconds
#
# Revision: 6
# Processed by: cddbd v1.5.2PL0 Copyright (c) Steve Scherf et al.
# Submitted via: ExactAudioCopy v1.3
#
DISCID=aa10cd0e
DTITLE=Grupo Niche - El Unico
DYEAR=1996
DGENRE=Salsa
TTITLE0=Gotas de Lluvia
TTITLE1=Tiempos de Ayer
TTITLE2=Etnia
TTITLE3=Una Rosa
TTITLE4=Cielo de Tambores
TTITLE5=Doña Pastora
TTITLE6=Amor, Amor
TTITLE7=Un Alto en el Camino
TTITLE8=La Magia de tus Besos
TTITLE9=Miserable
TTITLE10=La Gallinita de los Huevos de Oro
TTITLE11=Lo Bonito y lo Feo
TTITLE12=Ana Mile
TTITLE13=Se me parte el Corazon
EXTD=YEAR: 1996
EXTT0=
EXTT1=
EXTT2=
EXTT3=
EXTT4=
EXTT5=
EXTT6=
EXTT7=
EXTT8=
EXTT9=
EXTT10=
EXTT11=
EXTT12=
EXTT13=
PLAYORDER=
